<?xml version="1.0" encoding="UTF-8" standalone="no"?>
<svg
   xmlns:dc="http://purl.org/dc/elements/1.1/"
   xmlns:cc="http://creativecommons.org/ns#"
   xmlns:rdf="http://www.w3.org/1999/02/22-rdf-syntax-ns#"
   xmlns:svg="http://www.w3.org/2000/svg"
   xmlns="http://www.w3.org/2000/svg"
   xmlns:xlink="http://www.w3.org/1999/xlink"
   xmlns:sodipodi="http://sodipodi.sourceforge.net/DTD/sodipodi-0.dtd"
   xmlns:inkscape="http://www.inkscape.org/namespaces/inkscape"
   width="210mm"
   height="297mm"
   viewBox="0 0 210 297"
   version="1.1"
   id="svg8"
   inkscape:version="1.0.1 (3bc2e813f5, 2020-09-07)"
   sodipodi:docname="teste.svg">
  <defs
     id="defs2">
    <linearGradient
       inkscape:collect="always"
       id="linearGradient38">
      <stop
         style="stop-color:#1f6405;stop-opacity:1"
         offset="0"
         id="stop34" />
      <stop
         style="stop-color:#193815;stop-opacity:1"
         offset="1"
         id="stop36" />
    </linearGradient>
    <linearGradient
       inkscape:collect="always"
       xlink:href="#linearGradient38"
       id="linearGradient32"
       x1="92.88765"
       y1="127.28349"
       x2="93.171135"
       y2="164.60863"
       gradientUnits="userSpaceOnUse"
       gradientTransform="translate(-0.14010506,-0.00325854)" />
  </defs>
  <sodipodi:namedview
     id="base"
     pagecolor="#ffffff"
     bordercolor="#666666"
     borderopacity="1.0"
     inkscape:pageopacity="0.0"
     inkscape:pageshadow="2"
     inkscape:zoom="0.49497475"
     inkscape:cx="126.1273"
     inkscape:cy="458.32708"
     inkscape:document-units="mm"
     inkscape:current-layer="layer1"
     inkscape:document-rotation="0"
     showgrid="false"
     inkscape:window-width="1920"
     inkscape:window-height="1001"
     inkscape:window-x="1691"
     inkscape:window-y="-9"
     inkscape:window-maximized="1" />
  <metadata
     id="metadata5">
    <rdf:RDF>
      <cc:Work
         rdf:about="">
        <dc:format>image/svg+xml</dc:format>
        <dc:type
           rdf:resource="http://purl.org/dc/dcmitype/StillImage" />
        <dc:title></dc:title>
      </cc:Work>
    </rdf:RDF>
  </metadata>
  <g
     inkscape:label="Layer 1"
     inkscape:groupmode="layer"
     id="layer1">
    <g
       id="g197">
      <g
         id="g138">
        <g
           id="g108">
          <path
             style="fill:#18a203;stroke:none;stroke-width:0.264583px;stroke-linecap:butt;stroke-linejoin:miter;stroke-opacity:1;fill-opacity:1"
             d="m 157.75781,143.72545 c -5.43341,2.39671 -10.86681,4.77793 -16.30022,6.18935 -5.15334,0.34079 -10.64763,0.11334 -15.44978,1.03944 -4.38969,0.71537 -7.72979,2.13046 -11.00692,3.58754 7.69284,2.68021 16.07196,2.31025 24.89755,-0.044 9.90505,-2.36432 15.25128,-6.14344 17.85937,-10.77233 z"
             id="path102"
             sodipodi:nodetypes="cccccc" />
          <path
             style="fill:#59d608;stroke:none;stroke-width:0.264583px;stroke-linecap:butt;stroke-linejoin:miter;stroke-opacity:1;fill-opacity:1"
             d="m 41.057663,146.13504 2.458471,-0.23946 c 4.732408,3.65813 7.978823,3.88705 11.101424,3.83024 l 9.451036,-0.003 c 4.674488,0.23087 8.909798,1.99886 13.087424,3.96875 -6.476484,2.00223 -13.195672,2.85162 -20.176109,2.46007 -6.712566,-1.93372 -11.853326,-5.43924 -15.922246,-10.0166 z"
             id="path104"
             sodipodi:nodetypes="ccccccc" />
        </g>
        <path
           style="fill:#59d402;stroke:none;stroke-width:0.264583px;stroke-linecap:butt;stroke-linejoin:miter;stroke-opacity:1;fill-opacity:1"
           d="m 162.83396,129.32504 v -3.50791 c -1.14738,-2.68253 -4.01205,-5.41557 -2.43884,-8.01809 1.24738,-2.37757 2.82899,-3.00971 4.87767,-1.20271 2.04924,2.48832 2.43655,4.00353 2.07134,5.07812 l -2.67269,3.842 c -0.56601,1.18077 -1.17472,2.35441 -0.70159,3.70837 z"
           id="path100"
           sodipodi:nodetypes="cccccccc" />
        <path
           style="fill:#abfb00;stroke:none;stroke-width:0.264583px;stroke-linecap:butt;stroke-linejoin:miter;stroke-opacity:1;fill-opacity:1"
           d="m 170.05024,129.39186 2.90655,-4.84426 c 1.23033,-1.72987 -0.12723,-3.20929 -1.60362,-4.67722 -1.62192,-1.99682 -2.90269,-1.17923 -4.17608,-0.30068 -0.96837,1.35264 -2.31952,2.6065 -0.63477,4.64381 l 1.9043,3.27405 0.23386,1.87089 z"
           id="path98"
           sodipodi:nodetypes="cccccccc" />
        <g
           id="g92">
          <path
             style="fill:#114001;stroke:none;stroke-width:0.264583px;stroke-linecap:butt;stroke-linejoin:miter;stroke-opacity:1;fill-opacity:1"
             d="m 61.605625,86.795778 v 42.562672 l 13.498566,0.0918 0.06536,-42.988598 z"
             id="path86"
             sodipodi:nodetypes="ccccc" />
          <path
             style="fill:#163a11;stroke:none;stroke-width:0.264583px;stroke-linecap:butt;stroke-linejoin:miter;stroke-opacity:1;fill-opacity:1"
             d="m 64.345139,81.784475 10.289876,0.06682 -1.937705,3.00678 -10.757598,-0.06682 z"
             id="path88" />
        </g>
        <g
           id="g82">
          <path
             style="fill:#51ab09;stroke:none;stroke-width:0.264583px;stroke-linecap:butt;stroke-linejoin:miter;stroke-opacity:1;fill-opacity:1"
             d="m 79.445865,91.807082 20.780205,0.06682 v 37.551368 l -20.904118,-0.10383 0.190731,-28.49401 z"
             id="path76"
             sodipodi:nodetypes="cccccc" />
          <path
             style="fill:#173a12;stroke:none;stroke-width:0.264583px;stroke-linecap:butt;stroke-linejoin:miter;stroke-opacity:1;fill-opacity:1"
             d="m 83.72218,89.936195 1.937702,-3.274053 10.289876,0.267272 -2.071338,3.006781 z"
             id="path78" />
        </g>
        <g
           id="g74">
          <path
             style="fill:#16a502;stroke:none;stroke-width:0.264583px;stroke-linecap:butt;stroke-linejoin:miter;stroke-opacity:1;fill-opacity:1"
             d="m 103.0324,129.42527 0.20045,-23.58654 H 90.604368 l 0.400905,23.38609 z"
             id="path68" />
          <path
             style="fill:#0f3d09;stroke:none;stroke-width:0.264583px;stroke-linecap:butt;stroke-linejoin:miter;stroke-opacity:1;fill-opacity:1"
             d="m 90.537553,103.50012 2.00452,-3.00678 10.423507,-0.0668 -2.20497,3.20724 z"
             id="path70" />
        </g>
        <g
           id="g66">
          <path
             style="fill:#acfb02;stroke:none;stroke-width:0.264583px;stroke-linecap:butt;stroke-linejoin:miter;stroke-opacity:1;fill-opacity:1"
             d="m 103.0324,129.42527 0.26727,-58.598847 16.43708,-0.06682 0.12895,11.733696 -0.0621,5.43837 v 41.359951 z"
             id="path60" />
          <path
             style="fill:#133e0f;stroke:none;stroke-width:0.264583px;stroke-linecap:butt;stroke-linejoin:miter;stroke-opacity:1;fill-opacity:1"
             d="m 105.30419,68.638155 1.9043,-2.772921 h 10.7576 l -2.05464,2.939965 z"
             id="path62" />
        </g>
        <g
           id="g58">
          <path
             style="fill:#5ad501;stroke:none;stroke-width:0.264583px;stroke-linecap:butt;stroke-linejoin:miter;stroke-opacity:1;fill-opacity:1"
             d="M 115.18824,129.36235 V 88.068451 h 15.11905 l 0.0945,20.127229 h -3.77976 l -0.18899,21.26117 z"
             id="path52" />
          <path
             style="fill:#173a14;stroke:none;stroke-width:0.264583px;stroke-linecap:butt;stroke-linejoin:miter;stroke-opacity:1;fill-opacity:1"
             d="m 116.59633,85.459431 2.10475,-2.906556 10.3901,0.03341 -1.9377,2.839738 z"
             id="path54" />
        </g>
        <g
           id="g50">
          <path
             style="fill:#133d0f;stroke:none;stroke-width:0.264583px;stroke-linecap:butt;stroke-linejoin:miter;stroke-opacity:1;fill-opacity:1"
             d="m 126.43303,129.45685 0.18899,-21.26117 h 18.85156 v 21.35566 z"
             id="path42" />
          <path
             style="fill:#133d0e;stroke:none;stroke-width:0.264583px;stroke-linecap:butt;stroke-linejoin:miter;stroke-opacity:1;fill-opacity:1"
             d="m 129.83482,106.06957 2.17336,-2.88207 h 10.25261 l -1.79539,2.74033 z"
             id="path46" />
        </g>
        <path
           style="fill:#8ad40a;stroke:none;stroke-width:0.264583px;stroke-linecap:butt;stroke-linejoin:miter;stroke-opacity:1;fill-opacity:1"
           d="m 155.67894,129.36235 -0.0472,-13.27641 h -10.06362 l 0.0472,13.27641 z"
           id="path40" />
        <path
           style="fill:url(#linearGradient32);fill-opacity:1;stroke:none;stroke-width:0.264583px;stroke-linecap:butt;stroke-linejoin:miter;stroke-opacity:1"
           d="m 174.3869,129.48882 -140.851045,-0.13363 -0.13057,-18.89491 0.47247,-0.23624 0.14174,-0.94493 6.42559,2.12611 9.21317,2.4096 -15.16629,-5.71689 -0.61421,-0.51972 -6.4256,-14.93006 5.57515,15.54427 -3.2128,2.88207 -3.9215,4.53572 -4.016,4.81919 -0.18898,0.70871 1.32291,-1.13393 8.97694,-8.7407 -0.0945,6.70908 -0.42523,6.23661 -0.85044,5.29166 -11.05581,-0.0472 c 2.06641,5.64904 5.27193,10.90837 12.09524,14.93005 2.5752,0.95257 5.28354,1.77201 8.97693,1.6064 l 2.88207,-0.0945 c 3.77789,3.08338 6.71537,3.75058 9.49666,3.96875 3.295,-0.0473 6.88121,-0.0945 11.0558,-0.14174 4.976512,0.70888 8.953801,2.41698 13.087425,3.96875 12.320207,6.1195 24.89523,7.19371 37.84487,0.85044 l 8.55171,-3.07105 8.12648,-1.18118 c 5.94753,0.27174 10.85577,-0.19411 15.1663,-1.93713 6.13352,-2.76209 12.54027,-5.03237 18.09561,-8.83519 3.90503,-2.52337 7.05277,-5.86714 9.4459,-10.02841 z"
           id="path24"
           sodipodi:nodetypes="ccccccccccccccccccccccccccccccccc" />
        <path
           style="fill:#abfc01;stroke:none;stroke-width:0.264583px;stroke-linecap:butt;stroke-linejoin:miter;stroke-opacity:1;fill-opacity:1"
           d="m 72.22959,129.35845 -0.200453,-28.73147 h 13.964832 l 0.133636,28.8651 z"
           id="path84" />
        <path
           style="fill:#51ac09;stroke:none;stroke-width:0.264583px;stroke-linecap:butt;stroke-linejoin:miter;stroke-opacity:1;fill-opacity:1"
           d="m 55.992966,110.24868 14.098468,0.0668 0.267269,19.31022 -14.1979,-0.0922 z"
           id="path94"
           sodipodi:nodetypes="ccccc" />
        <path
           style="fill:#8ed303;stroke:none;stroke-width:0.264583px;stroke-linecap:butt;stroke-linejoin:miter;stroke-opacity:1;fill-opacity:1"
           d="m 42.161766,119.5363 21.247928,-0.0668 0.133636,9.88897 H 42.295402 Z"
           id="path96" />
      </g>
      <text
         xml:space="preserve"
         style="font-style:normal;font-weight:normal;font-size:61.6259px;line-height:1.25;font-family:sans-serif;fill:#000000;fill-opacity:1;stroke:none;stroke-width:1.54065"
         x="16.542639"
         y="247.26735"
         id="text144"
         transform="scale(1.2638724,0.79121912)"><tspan
           sodipodi:role="line"
           id="tspan142"
           x="16.542639"
           y="247.26735"
           style="font-style:normal;font-variant:normal;font-weight:normal;font-stretch:normal;font-family:Corbel;-inkscape-font-specification:Corbel;stroke-width:1.54065">WMJ</tspan></text>
      <text
         xml:space="preserve"
         style="font-style:normal;font-weight:normal;font-size:15.1002px;line-height:1.25;font-family:sans-serif;fill:#000000;fill-opacity:1;stroke:none;stroke-width:0.377502"
         x="20.021446"
         y="274.18854"
         id="text144-1"
         transform="scale(1.3115711,0.76244437)"><tspan
           sodipodi:role="line"
           id="tspan142-0"
           x="20.021446"
           y="274.18854"
           style="font-style:normal;font-variant:normal;font-weight:normal;font-stretch:normal;font-family:Corbel;-inkscape-font-specification:Corbel;stroke-width:0.377502">E N G E N H A R I A</tspan></text>
    </g>
  </g>
</svg>
